<?xml version="1.0" encoding="UTF-8"?>
<svg width="1440px" height="1245px" viewBox="0 0 1440 1245" version="1.1" xmlns="http://www.w3.org/2000/svg" xmlns:xlink="http://www.w3.org/1999/xlink">
    <!-- Generator: Sketch 52.1 (67048) - http://www.bohemiancoding.com/sketch -->
    <title>Better Confetti</title>
    <desc>Created with Sketch.</desc>
    <g id="Better-Confetti" stroke="none" stroke-width="1" fill="none" fill-rule="evenodd">
        <g id="Group-2" transform="translate(19.000000, 23.000000)" fill-rule="nonzero">
            <path d="M1316.07358,1043.61996 L1324.49587,1060.46454 C1325.48382,1062.44045 1324.68293,1064.84315 1322.70701,1065.8311 C1322.15159,1066.10881 1321.53914,1066.2534 1320.91816,1066.2534 L1305.86243,1066.2534 C1303.65329,1066.2534 1301.86243,1064.46253 1301.86243,1062.2534 C1301.86243,1061.63241 1302.00701,1061.01996 1302.28472,1060.46454 L1310.70701,1043.61996 C1311.44798,1042.13802 1313.25,1041.53735 1314.73193,1042.27832 C1315.31252,1042.56861 1315.78328,1043.03938 1316.07358,1043.61996 Z" id="Triangle" fill="#E16AC0" transform="translate(1313.390294, 1052.253395) rotate(-16.000000) translate(-1313.390294, -1052.253395) "></path>
            <path d="M1059.28068,904.437997 L1073.20297,932.282579 C1074.19092,934.258493 1073.39003,936.661185 1071.41411,937.649142 C1070.85869,937.926853 1070.24624,938.071433 1069.62526,938.071433 L1043.56953,938.071433 C1041.36039,938.071433 1039.56953,936.280572 1039.56953,934.071433 C1039.56953,933.450453 1039.71411,932.838001 1039.99182,932.282579 L1053.91411,904.437997 C1054.65508,902.956061 1056.4571,902.355388 1057.93904,903.096356 C1058.51962,903.386647 1058.99039,903.857414 1059.28068,904.437997 Z" id="Triangle" fill="#E16AC0" transform="translate(1056.597395, 918.571433) rotate(-342.000000) translate(-1056.597395, -918.571433) "></path>
            <path d="M38.399514,683.082796 L47.8218052,701.927378 C48.8097622,703.903292 48.0088648,706.305984 46.0329509,707.293941 C45.4775291,707.571652 44.8650769,707.716232 44.2440965,707.716232 L27.1883684,707.716232 C24.9792294,707.716232 23.1883684,705.925371 23.1883684,703.716232 C23.1883684,703.095252 23.3329487,702.4828 23.6106596,701.927378 L33.0329509,683.082796 C33.7739186,681.60086 35.5759377,681.000187 37.0578732,681.741155 C37.6384554,682.031446 38.1092229,682.502213 38.399514,683.082796 Z" id="Triangle" fill="#E16AC0" transform="translate(35.716232, 692.716232) rotate(-83.000000) translate(-35.716232, -692.716232) "></path>
            <path d="M453.932926,580.046956 L469.355217,610.891539 C470.343174,612.867453 469.542277,615.270145 467.566363,616.258102 C467.010941,616.535813 466.398489,616.680393 465.777508,616.680393 L436.72178,616.680393 C434.512641,616.680393 432.72178,614.889532 432.72178,612.680393 C432.72178,612.059413 432.86636,611.446961 433.144071,610.891539 L448.566363,580.046956 C449.30733,578.565021 451.109349,577.964348 452.591285,578.705316 C453.171867,578.995607 453.642635,579.466374 453.932926,580.046956 Z" id="Triangle" fill="#E16AC0" transform="translate(451.249644, 595.680393) rotate(-43.000000) translate(-451.249644, -595.680393) "></path>
            <path d="M23.9460984,153.62938 L34.3683896,174.473962 C35.3563466,176.449876 34.5554492,178.852569 32.5795352,179.840526 C32.0241135,180.118236 31.4116612,180.262817 30.7906808,180.262817 L11.7349527,180.262817 C9.52581374,180.262817 7.73495274,178.471956 7.73495274,176.262817 C7.73495274,175.641836 7.8795331,175.029384 8.15724397,174.473962 L18.5795352,153.62938 C19.320503,152.147444 21.1225221,151.546771 22.6044576,152.287739 C23.1850398,152.57803 23.6558072,153.048798 23.9460984,153.62938 Z" id="Triangle" fill="#E16AC0" transform="translate(21.262817, 164.262817) rotate(-115.000000) translate(-21.262817, -164.262817) "></path>
            <path d="M1310.21725,524.936015 L1321.24511,546.991743 C1322.23307,548.967657 1321.43217,551.370349 1319.45626,552.358306 C1318.90083,552.636017 1318.28838,552.780597 1317.6674,552.780597 L1295.61167,552.780597 C1293.40253,552.780597 1291.61167,550.989736 1291.61167,548.780597 C1291.61167,548.159617 1291.75625,547.547164 1292.03396,546.991743 L1303.06183,524.936015 C1304.04979,522.960101 1306.45248,522.159203 1308.42839,523.14716 C1309.2025,523.534215 1309.83019,524.161905 1310.21725,524.936015 Z" id="Triangle" fill="#E94962" transform="translate(1306.639537, 535.280597) rotate(-124.000000) translate(-1306.639537, -535.280597) "></path>
            <path d="M1283.32111,337.461358 L1293.84897,358.517086 C1294.83693,360.493 1294.03603,362.895692 1292.06011,363.883649 C1291.50469,364.16136 1290.89224,364.30594 1290.27126,364.30594 L1269.21553,364.30594 C1267.00639,364.30594 1265.21553,362.515079 1265.21553,360.30594 C1265.21553,359.68496 1265.36011,359.072508 1265.63782,358.517086 L1276.16569,337.461358 C1277.15364,335.485444 1279.55634,334.684547 1281.53225,335.672504 C1282.30636,336.059558 1282.93405,336.687248 1283.32111,337.461358 Z" id="Triangle" fill="#E94962" transform="translate(1279.743396, 347.305940) rotate(-27.000000) translate(-1279.743396, -347.305940) "></path>
            <path d="M1155.72587,1033.99319 L1163.25374,1049.04892 C1164.24169,1051.02483 1163.4408,1053.42753 1161.46488,1054.41548 C1160.90946,1054.69319 1160.29701,1054.83777 1159.67603,1054.83777 L1144.6203,1054.83777 C1142.41116,1054.83777 1140.6203,1053.04691 1140.6203,1050.83777 C1140.6203,1050.21679 1140.76488,1049.60434 1141.04259,1049.04892 L1148.57046,1033.99319 C1149.55841,1032.01728 1151.9611,1031.21638 1153.93702,1032.20434 C1154.71113,1032.59139 1155.33882,1033.21908 1155.72587,1033.99319 Z" id="Triangle" fill="#E94962" transform="translate(1152.148164, 1040.837774) rotate(-23.000000) translate(-1152.148164, -1040.837774) "></path>
            <path d="M1339.27741,45.8551143 L1350.80527,68.9108424 C1351.79323,70.8867564 1350.99233,73.2894485 1349.01642,74.2774055 C1348.46099,74.5551164 1347.84854,74.6996968 1347.22756,74.6996968 L1324.17183,74.6996968 C1321.96269,74.6996968 1320.17183,72.9088358 1320.17183,70.6996968 C1320.17183,70.0787164 1320.31641,69.4662641 1320.59412,68.9108424 L1332.12199,45.8551143 C1333.10994,43.8792003 1335.51264,43.0783029 1337.48855,44.0662599 C1338.26266,44.4533147 1338.89035,45.0810047 1339.27741,45.8551143 Z" id="Triangle" fill="#E94962" transform="translate(1335.699697, 56.699697) rotate(-211.000000) translate(-1335.699697, -56.699697) "></path>
            <path d="M345.906411,740.484119 L358.434275,765.539848 C359.422232,767.515762 358.621334,769.918454 356.64542,770.906411 C356.089999,771.184122 355.477546,771.328702 354.856566,771.328702 L329.800838,771.328702 C327.591699,771.328702 325.800838,769.537841 325.800838,767.328702 C325.800838,766.707722 325.945418,766.095269 326.223129,765.539848 L338.750993,740.484119 C339.73895,738.508205 342.141642,737.707308 344.117556,738.695265 C344.891666,739.08232 345.519356,739.71001 345.906411,740.484119 Z" id="Triangle" fill="#E94962" transform="translate(342.328702, 752.328702) rotate(-359.000000) translate(-342.328702, -752.328702) "></path>
            <path d="M1087.10021,1144.34456 L1096.62807,1163.40028 C1097.61603,1165.3762 1096.81513,1167.77889 1094.83922,1168.76685 C1094.2838,1169.04456 1093.67135,1169.18914 1093.05037,1169.18914 L1073.99464,1169.18914 C1071.7855,1169.18914 1069.99464,1167.39828 1069.99464,1165.18914 C1069.99464,1164.56816 1070.13922,1163.95571 1070.41693,1163.40028 L1079.94479,1144.34456 C1080.93275,1142.36864 1083.33544,1141.56774 1085.31136,1142.5557 C1086.08546,1142.94276 1086.71315,1143.57045 1087.10021,1144.34456 Z" id="Triangle" fill="#ED7639" transform="translate(1083.522501, 1153.189138) rotate(-193.000000) translate(-1083.522501, -1153.189138) "></path>
            <path d="M680.992926,780.146543 L691.52079,801.202271 C692.508747,803.178185 691.70785,805.580877 689.731936,806.568834 C689.176514,806.846545 688.564062,806.991126 687.943081,806.991126 L666.887353,806.991126 C664.678214,806.991126 662.887353,805.200265 662.887353,802.991126 C662.887353,802.370145 663.031934,801.757693 663.309645,801.202271 L673.837509,780.146543 C674.825466,778.170629 677.228158,777.369732 679.204072,778.357689 C679.978181,778.744744 680.605871,779.372434 680.992926,780.146543 Z" id="Triangle" fill="#ED7639" transform="translate(677.415217, 789.991126) rotate(-118.000000) translate(-677.415217, -789.991126) "></path>
            <path d="M528.604288,743.181996 L543.132152,772.237725 C544.120109,774.213639 543.319211,776.616331 541.343297,777.604288 C540.787876,777.881999 540.175423,778.026579 539.554443,778.026579 L510.498715,778.026579 C508.289576,778.026579 506.498715,776.235718 506.498715,774.026579 C506.498715,773.405599 506.643295,772.793146 506.921006,772.237725 L521.44887,743.181996 C522.436827,741.206082 524.839519,740.405185 526.815433,741.393142 C527.589543,741.780197 528.217233,742.407887 528.604288,743.181996 Z" id="Triangle" fill="#ED7639" transform="translate(525.026579, 757.026579) rotate(-81.000000) translate(-525.026579, -757.026579) "></path>
            <path d="M636.311612,558.389321 L645.339476,576.445049 C646.327433,578.420963 645.526536,580.823655 643.550622,581.811612 C642.9952,582.089323 642.382748,582.233903 641.761768,582.233903 L623.706039,582.233903 C621.4969,582.233903 619.706039,580.443042 619.706039,578.233903 C619.706039,577.612923 619.85062,577.000471 620.128331,576.445049 L629.156195,558.389321 C630.144152,556.413407 632.546844,555.61251 634.522758,556.600467 C635.296867,556.987521 635.924557,557.615211 636.311612,558.389321 Z" id="Triangle" fill="#ED7639" transform="translate(632.733903, 566.733903) rotate(-171.000000) translate(-632.733903, -566.733903) "></path>
            <path d="M1262.45844,704.580863 L1272.9863,725.636591 C1273.97426,727.612505 1273.17336,730.015197 1271.19745,731.003154 C1270.64203,731.280865 1270.02958,731.425445 1269.40859,731.425445 L1248.35287,731.425445 C1246.14373,731.425445 1244.35287,729.634584 1244.35287,727.425445 C1244.35287,726.804465 1244.49745,726.192012 1244.77516,725.636591 L1255.30302,704.580863 C1256.29098,702.604949 1258.69367,701.804051 1260.66959,702.792008 C1261.44369,703.179063 1262.07138,703.806753 1262.45844,704.580863 Z" id="Triangle" fill="#ED7639" transform="translate(1258.880731, 714.425445) rotate(-302.000000) translate(-1258.880731, -714.425445) "></path>
            <path d="M74.3811213,867.625446 L85.9089853,890.681175 C86.8969423,892.657088 86.0960449,895.059781 84.1201309,896.047738 C83.5647092,896.325449 82.9522569,896.470029 82.3312765,896.470029 L59.2755484,896.470029 C57.0664094,896.470029 55.2755484,894.679168 55.2755484,892.470029 C55.2755484,891.849049 55.4201288,891.236596 55.6978397,890.681175 L67.2257037,867.625446 C68.2136607,865.649532 70.6163529,864.848635 72.5922669,865.836592 C73.3663765,866.223647 73.9940664,866.851337 74.3811213,867.625446 Z" id="Triangle" fill="#ED7639" transform="translate(70.803412, 878.470029) rotate(-328.000000) translate(-70.803412, -878.470029) "></path>
            <path d="M144.140101,1061.55099 L159.167965,1091.60672 C160.155922,1093.58263 159.355025,1095.98532 157.379111,1096.97328 C156.823689,1097.25099 156.211237,1097.39557 155.590256,1097.39557 L125.534528,1097.39557 C123.325389,1097.39557 121.534528,1095.60471 121.534528,1093.39557 C121.534528,1092.77459 121.679109,1092.16214 121.956819,1091.60672 L136.984683,1061.55099 C137.97264,1059.57507 140.375333,1058.77418 142.351247,1059.76213 C143.125356,1060.14919 143.753046,1060.77688 144.140101,1061.55099 Z" id="Triangle" fill="#ED7639" transform="translate(140.562392, 1075.895570) rotate(-268.000000) translate(-140.562392, -1075.895570) "></path>
            <path d="M94.2795531,450.357262 L103.307417,468.41299 C104.295374,470.388904 103.494477,472.791596 101.518563,473.779553 C100.963141,474.057264 100.350689,474.201844 99.7297084,474.201844 L81.6739803,474.201844 C79.4648413,474.201844 77.6739803,472.410983 77.6739803,470.201844 C77.6739803,469.580864 77.8185606,468.968412 78.0962715,468.41299 L87.1241356,450.357262 C88.1120925,448.381348 90.5147847,447.58045 92.4906987,448.568407 C93.2648083,448.955462 93.8924983,449.583152 94.2795531,450.357262 Z" id="Triangle" fill="#ED7639" transform="translate(90.701844, 458.701844) rotate(-19.000000) translate(-90.701844, -458.701844) "></path>
            <path d="M1205.69029,870.719838 L1220.21816,899.775566 C1221.20611,901.75148 1220.40522,904.154173 1218.4293,905.14213 C1217.87388,905.41984 1217.26143,905.564421 1216.64045,905.564421 L1187.58472,905.564421 C1185.37558,905.564421 1183.58472,903.77356 1183.58472,901.564421 C1183.58472,900.94344 1183.7293,900.330988 1184.00701,899.775566 L1198.53487,870.719838 C1199.52283,868.743924 1201.92552,867.943027 1203.90144,868.930984 C1204.67555,869.318039 1205.30324,869.945729 1205.69029,870.719838 Z" id="Triangle" fill="#774EE0" transform="translate(1202.112583, 884.564421) rotate(-307.000000) translate(-1202.112583, -884.564421) "></path>
            <path d="M1307.51352,152.356841 L1323.04139,183.412569 C1324.02934,185.388483 1323.22845,187.791176 1321.25253,188.779133 C1320.69711,189.056843 1320.08466,189.201424 1319.46368,189.201424 L1288.40795,189.201424 C1286.19881,189.201424 1284.40795,187.410563 1284.40795,185.201424 C1284.40795,184.580443 1284.55253,183.967991 1284.83024,183.412569 L1300.35811,152.356841 C1301.34606,150.380927 1303.74875,149.58003 1305.72467,150.567987 C1306.49878,150.955042 1307.12647,151.582732 1307.51352,152.356841 Z" id="Triangle" fill="#774EE0" transform="translate(1303.935814, 167.201424) rotate(-148.000000) translate(-1303.935814, -167.201424) "></path>
            <path d="M1077.87783,575.171905 L1089.40569,598.227633 C1090.39365,600.203547 1089.59275,602.60624 1087.61684,603.594197 C1087.06141,603.871907 1086.44896,604.016488 1085.82798,604.016488 L1062.77225,604.016488 C1060.56311,604.016488 1058.77225,602.225627 1058.77225,600.016488 C1058.77225,599.395507 1058.91683,598.783055 1059.19454,598.227633 L1070.72241,575.171905 C1071.71037,573.195991 1074.11306,572.395094 1076.08897,573.383051 C1076.86308,573.770106 1077.49077,574.397796 1077.87783,575.171905 Z" id="Triangle" fill="#774EE0" transform="translate(1074.300118, 586.016488) rotate(-53.000000) translate(-1074.300118, -586.016488) "></path>
            <path d="M1369.27367,441.851381 L1381.80154,466.90711 C1382.78949,468.883024 1381.9886,471.285716 1380.01268,472.273673 C1379.45726,472.551384 1378.84481,472.695964 1378.22383,472.695964 L1353.1681,472.695964 C1350.95896,472.695964 1349.1681,470.905103 1349.1681,468.695964 C1349.1681,468.074984 1349.31268,467.462531 1349.59039,466.90711 L1362.11826,441.851381 C1363.10621,439.875467 1365.5089,439.07457 1367.48482,440.062527 C1368.25893,440.449582 1368.88662,441.077272 1369.27367,441.851381 Z" id="Triangle" fill="#774EE0" transform="translate(1365.695964, 453.695964) rotate(-118.000000) translate(-1365.695964, -453.695964) "></path>
            <path d="M807.558716,603.136425 L821.08658,630.192153 C822.074537,632.168067 821.27364,634.570759 819.297726,635.558716 C818.742304,635.836427 818.129852,635.981007 817.508871,635.981007 L790.453143,635.981007 C788.244004,635.981007 786.453143,634.190146 786.453143,631.981007 C786.453143,631.360027 786.597723,630.747575 786.875434,630.192153 L800.403298,603.136425 C801.391255,601.160511 803.793948,600.359613 805.769862,601.34757 C806.543971,601.734625 807.171661,602.362315 807.558716,603.136425 Z" id="Triangle" fill="#774EE0" transform="translate(803.981007, 615.981007) rotate(-96.000000) translate(-803.981007, -615.981007) "></path>
            <path d="M586.765033,1106.39541 L601.792897,1136.45114 C602.780854,1138.42705 601.979957,1140.82974 600.004043,1141.8177 C599.448621,1142.09541 598.836169,1142.23999 598.215189,1142.23999 L568.159461,1142.23999 C565.950322,1142.23999 564.159461,1140.44913 564.159461,1138.23999 C564.159461,1137.61901 564.304041,1137.00656 564.581752,1136.45114 L579.609616,1106.39541 C580.597573,1104.41949 583.000265,1103.6186 584.976179,1104.60655 C585.750289,1104.99361 586.377979,1105.6213 586.765033,1106.39541 Z" id="Triangle" fill="#774EE0" transform="translate(583.187325, 1120.739991) rotate(-155.000000) translate(-583.187325, -1120.739991) "></path>
            <path d="M59.1263539,7.70406271 L68.654218,26.7597908 C69.642175,28.7357048 68.8412776,31.1383969 66.8653636,32.1263539 C66.3099419,32.4040648 65.6974896,32.5486452 65.0765092,32.5486452 L46.0207811,32.5486452 C43.8116421,32.5486452 42.0207811,30.7577842 42.0207811,28.5486452 C42.0207811,27.9276648 42.1653615,27.3152125 42.4430724,26.7597908 L51.9709364,7.70406271 C52.9588934,5.72814872 55.3615856,4.92725133 57.3374996,5.91520833 C58.1116092,6.30226313 58.7392991,6.9299531 59.1263539,7.70406271 Z" id="Triangle" fill="#774EE0" transform="translate(55.548645, 16.548645) rotate(-2.000000) translate(-55.548645, -16.548645) "></path>
            <g id="Group-3" transform="translate(226.413623, 612.739012) rotate(-56.000000) translate(-226.413623, -612.739012) translate(195.913623, 579.739012)">
                <path d="M43.4908207,5.84145562 L57.4341462,34.7494183 C58.3938838,36.7391918 57.5588748,39.1302431 55.5691012,40.0899807 C55.0232309,40.3532731 54.4246684,40.4890843 53.8186209,40.4871568 L26.0872927,40.3989597 C23.8781649,40.3919338 22.0930086,38.5953862 22.1000345,36.3862584 C22.1019211,35.7930922 22.2357072,35.2077703 22.4917034,34.6726855 L36.2797061,5.85291994 C37.2331122,3.86010485 39.6214964,3.01749737 41.6143114,3.97090345 C42.4341545,4.36313423 43.0959852,5.0228638 43.4908207,5.84145562 Z" id="Triangle" fill="#4AB2E7" transform="translate(39.966138, 22.032732) rotate(192.000000) translate(-39.966138, -22.032732) "></path>
                <path d="M34.1362113,16.2678678 L53.1924322,53.4350888 C54.2003361,55.4009029 53.4237965,57.8115776 51.4579825,58.8194814 C50.8985929,59.1062893 50.2794802,59.2572159 49.6508566,59.2600204 L11.1513288,59.4317839 C8.94221177,59.4416397 7.14337885,57.6587863 7.133523,55.4496693 C7.13062645,54.8004296 7.28580837,54.1602424 7.58566801,53.584391 L27.0289749,16.2454066 C28.0492838,14.2860024 30.4648185,13.5247152 32.4242228,14.5450241 C33.1596586,14.9279832 33.7579082,15.5300261 34.1362113,16.2678678 Z" id="Triangle" fill="#5EC3A6" transform="translate(30.383669, 36.761920) rotate(111.000000) translate(-30.383669, -36.761920) "></path>
            </g>
            <g id="Group-3" transform="translate(1368.236494, 862.197201) rotate(-151.000000) translate(-1368.236494, -862.197201) translate(1345.236494, 837.197201)">
                <path d="M33.8099198,4.99129679 L42.784106,23.6475171 C43.741734,25.6383069 42.9041909,28.0284717 40.9134011,28.9860996 C40.3673847,29.2487494 39.768835,29.383925 39.1629368,29.3814218 L21.349108,29.3078256 C19.1399879,29.2986988 17.3565409,27.5004544 17.3656677,25.2913342 C17.3681006,24.7024527 17.5005288,24.1213723 17.7534956,23.5895875 L26.5931381,5.0069633 C27.5421137,3.01203461 29.9286197,2.16412208 31.9235483,3.11309766 C32.7483281,3.50544041 33.4139998,4.16822827 33.8099198,4.99129679 Z" id="Triangle" fill="#4AB2E7" transform="translate(30.273008, 16.052879) rotate(192.000000) translate(-30.273008, -16.052879) "></path>
                <path d="M26.1062304,13.2690085 L38.9059355,38.2033838 C39.914804,40.1687029 39.1394475,42.5797584 37.1741283,43.5886269 C36.6161189,43.8750731 35.9985665,44.0262776 35.371341,44.0300302 L9.43402086,44.1852077 C7.22492139,44.1984243 5.42337829,42.4183095 5.41016171,40.20921 C5.40624668,39.5548281 5.56293989,38.9094791 5.86650095,38.3297536 L19.0041161,13.2402008 C20.0288946,11.2831305 22.4461607,10.5273588 24.403231,11.5521373 C25.1344363,11.9350176 25.7292945,12.5347212 26.1062304,13.2690085 Z" id="Triangle" fill="#5EC3A6" transform="translate(22.379171, 27.640096) rotate(111.000000) translate(-22.379171, -27.640096) "></path>
            </g>
            <g id="Group-3" transform="translate(423.927927, 977.140549) rotate(-342.000000) translate(-423.927927, -977.140549) translate(393.927927, 944.640549)">
                <path d="M42.8378738,5.78663191 L56.459308,34.04826 C57.4184663,36.0383129 56.5827611,38.429121 54.5927082,39.3882792 C54.0467986,39.6513947 53.4482407,39.7870312 52.8422352,39.7849461 L25.7654956,39.6917793 C23.5563696,39.684178 21.7716813,37.8871656 21.7792825,35.6780397 C21.7813195,35.0860485 21.9147324,34.5018898 22.1698961,33.9677089 L35.6252015,5.79924749 C36.5773924,3.80585149 38.9652624,2.96178796 40.9586584,3.91397884 C41.7798558,4.30624246 42.4427399,4.96681168 42.8378738,5.78663191 Z" id="Triangle" fill="#4AB2E7" transform="translate(39.318088, 21.653691) rotate(192.000000) translate(-39.318088, -21.653691) "></path>
                <path d="M33.6150782,16.0906505 L52.2617713,52.4470949 C53.2699394,54.4127735 52.4937237,56.8235525 50.5280452,57.8317205 C49.969035,58.1184287 49.3503513,58.2694317 48.7221121,58.272497 L11.0188576,58.4564594 C8.80974492,58.4672381 7.01016734,56.6851364 6.99938859,54.4760237 C6.99621392,53.8253727 7.15180993,53.1837692 7.45268325,52.6068533 L26.5092445,16.0664465 C27.5307801,14.1076815 29.946791,13.347907 31.905556,14.3694425 C32.6398311,14.7523819 33.2371499,15.3537837 33.6150782,16.0906505 Z" id="Triangle" fill="#5EC3A6" transform="translate(29.851390, 36.185894) rotate(111.000000) translate(-29.851390, -36.185894) "></path>
            </g>
            <g id="Group-3" transform="translate(836.958148, 1170.993358) rotate(-269.000000) translate(-836.958148, -1170.993358) translate(810.458148, 1142.493358)">
                <path d="M38.3713636,5.37055123 L49.5990463,28.5656329 C50.5615566,30.5540668 49.7298812,32.9462796 47.7414474,33.9087899 C47.1957559,34.1729343 46.5971605,34.3095816 45.9909014,34.3084044 L23.604013,34.2649347 C21.3948782,34.2606451 19.607498,32.4663101 19.6117875,30.2571753 C19.6129502,29.6584035 19.7485253,29.0675317 20.0085118,28.5281469 L31.1677174,5.3765349 C32.126923,3.3865048 34.5177509,2.55085641 36.507781,3.51006198 C37.3211571,3.90211379 37.9779611,4.55782756 38.3713636,5.37055123 Z" id="Triangle" fill="#4AB2E7" transform="translate(34.805681, 18.710411) rotate(192.000000) translate(-34.805681, -18.710411) "></path>
                <path d="M29.7576895,14.5061722 L45.4204398,45.1029137 C46.4270874,47.0693714 45.6490075,49.4795494 43.6825499,50.486197 C43.1213404,50.7734852 42.5001692,50.9240458 41.8697026,50.9255983 L10.3504568,51.0032103 C8.14132452,51.00865 6.3460592,49.2222042 6.3406195,47.0130719 C6.33903744,46.3705764 6.49224763,45.7371536 6.7872855,45.1664035 L22.643781,14.49205 C23.6582281,12.5296045 26.0714763,11.7611 28.0339218,12.775547 C28.7749012,13.1585815 29.3775999,13.7636779 29.7576895,14.5061722 Z" id="Triangle" fill="#5EC3A6" transform="translate(26.100653, 31.665629) rotate(111.000000) translate(-26.100653, -31.665629) "></path>
            </g>
            <g id="Group" transform="translate(920.394361, 720.570964) rotate(-335.000000) translate(-920.394361, -720.570964) translate(880.894361, 676.570964)">
                <path d="M53.954291,7.60164101 L71.4743188,42.8081868 C72.4585329,44.7859678 71.6530878,47.1871393 69.6753068,48.1713534 C69.1197236,48.4478313 68.507431,48.5912476 67.8868573,48.590259 L32.9580892,48.5346152 C30.748953,48.5310959 28.9609472,46.7373843 28.9644665,44.5282481 C28.9654442,43.9145574 29.1076159,43.3093206 29.3799785,42.759379 L46.7887187,7.60847695 C47.7691574,5.62882166 50.1687878,4.81879657 52.148443,5.79923527 C52.9310034,6.186804 53.5652299,6.81982153 53.954291,7.60164101 Z" id="Triangle" fill="#EAC12F" transform="translate(50.429286, 26.986547) rotate(192.000000) translate(-50.429286, -26.986547) "></path>
                <path d="M40.4477985,22.0063023 L64.1851059,69.3912935 C65.1745569,71.3664598 64.3754769,73.769757 62.4003106,74.759208 C61.8473314,75.0362206 61.2376481,75.1812291 60.6191665,75.1828395 L12.8960206,75.3071051 C10.6868891,75.3128575 8.89137097,73.5266657 8.88561865,71.3175342 C8.88397885,70.6877842 9.03105401,70.0665447 9.31487431,69.5043759 L33.3007129,21.995119 C34.2963402,20.0230589 36.7021263,19.2315037 38.6741865,20.2271311 C39.4411167,20.6143285 40.063003,21.238164 40.4477985,22.0063023 Z" id="Triangle" fill="#2B5BE6" transform="translate(36.747615, 47.552058) rotate(111.000000) translate(-36.747615, -47.552058) "></path>
            </g>
            <g id="Group" transform="translate(847.343749, 978.768322) rotate(-268.000000) translate(-847.343749, -978.768322) translate(806.343749, 933.268322)">
                <path d="M55.8818763,7.79182828 L74.270936,44.6607541 C75.256945,46.6376409 74.4536797,49.0395425 72.4767929,50.0255514 C71.9212901,50.3026187 71.3089247,50.4465929 70.6881596,50.4460798 L33.9707381,50.4157308 C31.7615999,50.4139049 29.9722197,48.6215642 29.9740457,46.412426 C29.9745558,45.7952336 30.1178816,45.1865311 30.3928068,44.6339528 L48.7211686,7.79537598 C49.7052181,5.81751311 52.1063226,5.01186826 54.0841855,5.99591784 C54.8626883,6.38324771 55.4937752,7.01370965 55.8818763,7.79182828 Z" id="Triangle" fill="#EAC12F" transform="translate(52.333195, 28.011177) rotate(192.000000) translate(-52.333195, -28.011177) "></path>
                <path d="M41.8687356,22.5808692 L66.7206308,72.2359461 C67.709363,74.2114724 66.9094083,76.6144786 64.9338821,77.6032107 C64.379733,77.8805571 63.7687236,78.0253606 63.149045,78.0262004 L13.3101694,78.093743 C11.1010324,78.0967369 9.30774601,76.3083045 9.30475215,74.0991676 C9.3039044,73.4736261 9.44977986,72.8566049 9.73066032,72.2976693 L34.7176408,22.5750497 C35.7095869,20.6011354 38.1138919,19.8050928 40.0878063,20.7970389 C40.8581833,21.1841745 41.4828544,21.8098631 41.8687356,22.5808692 Z" id="Triangle" fill="#2B5BE6" transform="translate(38.224624, 49.232002) rotate(111.000000) translate(-38.224624, -49.232002) "></path>
            </g>
            <g id="Group" transform="translate(607.460677, 924.156503) rotate(-348.000000) translate(-607.460677, -924.156503) translate(573.960677, 887.156503)">
                <path d="M46.4443135,6.76459305 L60.2419995,34.348027 C61.2302985,36.3237699 60.4298171,38.7266007 58.4540741,39.7148997 C57.898666,39.992724 57.2861976,40.1374109 56.6651786,40.1375006 L29.0618267,40.1414906 C26.8526877,40.1418099 25.0615679,38.3512078 25.0612486,36.1420688 C25.0611587,35.5204247 25.2059596,34.9073153 25.48416,34.3513963 L39.2898259,6.76397246 C40.2784676,4.788401 42.6814372,3.98833641 44.6570087,4.97697818 C45.4303481,5.36398299 46.0574428,5.99118648 46.4443135,6.76459305 Z" id="Triangle" fill="#EAC12F" transform="translate(42.863362, 22.347341) rotate(192.000000) translate(-42.863362, -22.347341) "></path>
                <path d="M34.3682993,19.0183171 L53.4567236,57.2017137 C54.444545,59.1776955 53.6434828,61.5803327 51.6675011,62.5681542 C51.1118556,62.8459292 50.4991496,62.9904704 49.8779404,62.9903226 L11.7192503,62.9812433 C9.5101114,62.9807177 7.71967655,61.1894306 7.72020218,58.9802917 C7.72034974,58.3601114 7.86470348,57.7484603 8.14186013,57.193656 L27.2121259,19.0193385 C28.1993832,17.0430748 30.6017916,16.2413268 32.5780553,17.2285841 C33.3528194,17.6156232 33.981039,18.2436635 34.3682993,19.0183171 Z" id="Triangle" fill="#2B5BE6" transform="translate(30.799985, 39.898186) rotate(111.000000) translate(-30.799985, -39.898186) "></path>
            </g>
            <g id="Group" transform="translate(359.586781, 1185.466634) rotate(-100.000000) translate(-359.586781, -1185.466634) translate(319.586781, 1140.966634)">
                <path d="M54.5966701,7.66496071 L72.4063818,43.4258814 C73.3912078,45.4033578 72.5865056,47.8047784 70.6090292,48.7896044 C70.0534741,49.0662828 69.4411575,49.2098893 68.8205192,49.2090631 L33.2956773,49.1617723 C31.0865402,49.1588315 29.2980648,47.3655881 29.3010056,45.1564511 C29.3018242,44.5415654 29.4443891,43.9351458 29.7176249,43.3843035 L47.4327552,7.67067348 C48.4144261,5.69162893 50.8145602,4.88309785 52.7936048,5.86476877 C53.5747807,6.25225764 54.2079358,6.88440372 54.5966701,7.66496071 Z" id="Triangle" fill="#EAC12F" transform="translate(51.063864, 27.328163) rotate(192.000000) translate(-51.063864, -27.328163) "></path>
                <path d="M40.921506,22.1977623 L65.0302853,70.3392419 C66.0194908,72.3145312 65.2201119,74.717729 63.2448226,75.7069344 C62.6914448,75.9840606 62.0813098,76.1289992 61.4624204,76.1303473 L13.0338901,76.2358331 C10.8247563,76.240645 9.02999875,74.4536891 9.02518687,72.2445553 C9.02381829,71.6162408 9.17048374,70.9964404 9.45329965,70.4353734 L33.7730507,22.188408 C34.7674224,20.2157144 37.1727041,19.4226278 39.1453976,20.4169995 C39.9135038,20.8041772 40.5363399,21.4286455 40.921506,22.1977623 Z" id="Triangle" fill="#2B5BE6" transform="translate(37.239880, 48.111927) rotate(111.000000) translate(-37.239880, -48.111927) "></path>
            </g>
            <g id="Group" transform="translate(280.052666, 501.312432) rotate(-147.000000) translate(-280.052666, -501.312432) translate(242.552666, 459.812432)">
                <path d="M51.4852818,7.31244853 L67.7234949,39.8139545 C68.7108418,41.7901734 67.9092028,44.1926182 65.9329839,45.1799652 C65.3775374,45.4574741 64.7651133,45.6018645 64.1442011,45.6017042 L31.6845392,45.5933221 C29.4754003,45.5927516 27.6850018,43.8014282 27.6855722,41.5922893 C27.6857323,40.9724937 27.8299195,40.3612143 28.1067576,39.806681 L44.3282065,7.31355709 C45.3149412,5.33703244 47.7171376,4.53464916 49.6936622,5.52138389 C50.4691463,5.90852659 51.0978989,6.53708438 51.4852818,7.31244853 Z" id="Triangle" fill="#EAC12F" transform="translate(47.915842, 25.350512) rotate(192.000000) translate(-47.915842, -25.350512) "></path>
                <path d="M38.3570346,20.8988333 L60.5134393,65.1980685 C61.5016385,67.1738614 60.7010356,69.5766517 58.7252427,70.5648509 C58.1702198,70.8424474 57.5582198,70.9870977 56.9376474,70.987361 L12.5871953,71.0061822 C10.3780565,71.0071197 8.58643569,69.2170189 8.58549819,67.0078801 C8.58523405,66.3854722 8.73021919,65.7715903 9.00892023,65.2150677 L31.2029675,20.8970112 C32.1921729,18.921722 34.5953707,18.1223431 36.57066,19.1115485 C37.3436017,19.4986301 37.9703467,20.1256945 38.3570346,20.8988333 Z" id="Triangle" fill="#2B5BE6" transform="translate(34.761162, 44.846717) rotate(111.000000) translate(-34.761162, -44.846717) "></path>
            </g>
            <g id="Group" transform="translate(201.562413, 913.181523) rotate(-109.000000) translate(-201.562413, -913.181523) translate(168.062413, 876.181523)">
                <path d="M46.4443135,6.76459305 L60.2419995,34.348027 C61.2302985,36.3237699 60.4298171,38.7266007 58.4540741,39.7148997 C57.898666,39.992724 57.2861976,40.1374109 56.6651786,40.1375006 L29.0618267,40.1414906 C26.8526877,40.1418099 25.0615679,38.3512078 25.0612486,36.1420688 C25.0611587,35.5204247 25.2059596,34.9073153 25.48416,34.3513963 L39.2898259,6.76397246 C40.2784676,4.788401 42.6814372,3.98833641 44.6570087,4.97697818 C45.4303481,5.36398299 46.0574428,5.99118648 46.4443135,6.76459305 Z" id="Triangle" fill="#EAC12F" transform="translate(42.863362, 22.347341) rotate(192.000000) translate(-42.863362, -22.347341) "></path>
                <path d="M34.3682993,19.0183171 L53.4567236,57.2017137 C54.444545,59.1776955 53.6434828,61.5803327 51.6675011,62.5681542 C51.1118556,62.8459292 50.4991496,62.9904704 49.8779404,62.9903226 L11.7192503,62.9812433 C9.5101114,62.9807177 7.71967655,61.1894306 7.72020218,58.9802917 C7.72034974,58.3601114 7.86470348,57.7484603 8.14186013,57.193656 L27.2121259,19.0193385 C28.1993832,17.0430748 30.6017916,16.2413268 32.5780553,17.2285841 C33.3528194,17.6156232 33.981039,18.2436635 34.3682993,19.0183171 Z" id="Triangle" fill="#2B5BE6" transform="translate(30.799985, 39.898186) rotate(111.000000) translate(-30.799985, -39.898186) "></path>
            </g>
            <g id="Group" transform="translate(104.492903, 265.674825) rotate(-265.000000) translate(-104.492903, -265.674825) translate(74.492903, 233.674825)">
                <path d="M43.2381923,5.45502954 L55.5875614,30.2573326 C56.5722139,32.2348954 55.7673012,34.6362454 53.7897385,35.620898 C53.2341754,35.8975196 52.6218658,36.0410721 52.0012459,36.0401999 L27.3717341,36.0055868 C25.1625972,36.0024822 23.3742548,34.2091062 23.3773594,31.9999693 C23.3782231,31.3854221 23.5206765,30.7793377 23.7936649,30.2287503 L36.0738076,5.46106038 C37.0551295,3.48184272 39.455121,2.67288834 41.4343386,3.65421019 C42.2159068,4.04172186 42.8493654,4.67411487 43.2381923,5.45502954 Z" id="Triangle" fill="#EAC12F" transform="translate(39.692552, 19.638609) rotate(192.000000) translate(-39.692552, -19.638609) "></path>
                <path d="M32.0017518,17.0692131 L49.2355329,51.4793654 C50.2248078,53.4546199 49.4255136,55.8578458 47.4502591,56.8471208 C46.8969943,57.1242147 46.2869873,57.2691732 45.6682135,57.2705957 L11.0414504,57.3501961 C8.83231721,57.3552745 7.0373441,55.5685351 7.03226571,53.3594019 C7.0308204,52.7306807 7.17760188,52.1104726 7.46070219,51.5490933 L24.8536842,17.0593405 C25.8484117,15.0868263 28.2538364,14.2941735 30.2263506,15.2889009 C30.9941236,15.6760844 31.6166906,16.3003735 32.0017518,17.0692131 Z" id="Triangle" fill="#2B5BE6" transform="translate(28.346074, 36.104898) rotate(111.000000) translate(-28.346074, -36.104898) "></path>
            </g>
        </g>
    </g>
</svg>