<?xml version="1.0" encoding="UTF-8"?>
<svg width="1440px" height="1200px" viewBox="0 0 1440 1200" version="1.1" xmlns="http://www.w3.org/2000/svg" xmlns:xlink="http://www.w3.org/1999/xlink">
    <!-- Generator: Sketch 52.1 (67048) - http://www.bohemiancoding.com/sketch -->
    <title>Desktop HD Copy 5</title>
    <desc>Created with Sketch.</desc>
    <g id="Desktop-HD-Copy-5" stroke="none" stroke-width="1" fill="none" fill-rule="evenodd">
        <g id="Group-2" transform="translate(-24.000000, 16.000000)" fill-rule="nonzero">
            <path d="M612.185929,901.689016 C613.282818,904.062913 617.421078,904.815613 621.409763,906.436811 C624.750287,907.94221 627.00284,909.671359 628.140669,910.663507 C631.43696,913.537759 633.694474,915.683366 634.771858,916.279802 C635.640481,916.760668 636.588466,916.833961 637.015493,916.800901 C638.062523,916.569301 639.325069,915.296614 640.404928,912.574205 C641.629506,909.486949 642.095168,906.012953 641.801915,902.152215 C641.336568,899.334418 640.488973,896.80612 639.259128,894.567322 C636.865917,890.803826 635.420019,890.051127 633.674969,888.835228 C631.730485,887.561429 627.841518,886.34553 624.451135,886.98243 C620.562168,887.735129 618.567825,889.298427 616.623341,890.977526 C615.576311,891.903925 610.634052,897.925519 612.185929,901.689016 Z" id="Path-2" fill="#E94962" transform="translate(626.886902, 901.807741) rotate(-252.000000) translate(-626.886902, -901.807741) "></path>
            <path d="M594.104088,908.966054 C595.200976,911.339951 599.339237,912.092651 603.327921,913.713849 C606.668445,915.219248 608.920998,916.948397 610.058827,917.940545 C613.355118,920.814797 615.612632,922.960404 616.690016,923.55684 C617.558639,924.037706 618.506624,924.110999 618.933651,924.077939 C619.980681,923.846339 621.243228,922.573652 622.323087,919.851243 C623.547665,916.763987 624.013327,913.289991 623.720073,909.429253 C623.254727,906.611456 622.407131,904.083158 621.177287,901.84436 C618.784076,898.080864 617.338177,897.328165 615.593128,896.112266 C613.648644,894.838467 609.759676,893.622568 606.369294,894.259468 C602.480326,895.012167 600.485983,896.575465 598.5415,898.254564 C597.49447,899.180963 592.55221,905.202557 594.104088,908.966054 Z" id="Path-2-Copy" fill="#4AB2E7" transform="translate(608.805060, 909.084779) rotate(-175.000000) translate(-608.805060, -909.084779) "></path>
            <path d="M793.628815,376.571534 L1147.32542,1083.96474 C1172.02434,1133.36259 1152.00191,1193.42989 1102.60406,1218.12881 C1088.71851,1225.07159 1073.40721,1228.6861 1057.8827,1228.6861 L350.489495,1228.6861 C295.26102,1228.6861 250.489495,1183.91457 250.489495,1128.6861 C250.489495,1113.16159 254.104004,1097.85028 261.046775,1083.96474 L614.743377,376.571534 C639.442301,327.173684 699.509605,307.151249 748.907455,331.850174 C768.260195,341.526544 783.952445,357.218794 793.628815,376.571534 Z" id="Triangle" fill="#FAFAFA" transform="translate(704.186096, 713.186096) rotate(150.000000) translate(-704.186096, -713.186096) "></path>
            <path d="M197.910041,335.643167 L214.493633,368.810351 C217.457504,374.738093 215.054812,381.94617 209.12707,384.910041 C207.460805,385.743173 205.623448,386.176915 203.760507,386.176915 L170.593322,386.176915 C163.965905,386.176915 158.593322,380.804332 158.593322,374.176915 C158.593322,372.313973 159.027064,370.476617 159.860196,368.810351 L176.443788,335.643167 C179.407659,329.715425 186.615736,327.312733 192.543478,330.276604 C194.865807,331.437768 196.748876,333.320838 197.910041,335.643167 Z" id="Triangle" fill="#EAC12F" transform="translate(187.176915, 350.176915) rotate(150.000000) translate(-187.176915, -350.176915) "></path>
            <path d="M253.151711,754.401497 L282.735303,813.568682 C285.699174,819.496424 283.296482,826.7045 277.36874,829.668371 C275.702474,830.501504 273.865118,830.935245 272.002176,830.935245 L212.834992,830.935245 C206.207575,830.935245 200.834992,825.562662 200.834992,818.935245 C200.834992,817.072304 201.268733,815.234947 202.101866,813.568682 L231.685458,754.401497 C234.649329,748.473755 241.857405,746.071063 247.785147,749.034934 C250.107476,750.196099 251.990546,752.079169 253.151711,754.401497 Z" id="Triangle" fill="#4AB2E7" transform="translate(242.418584, 781.935245) rotate(199.000000) translate(-242.418584, -781.935245) "></path>
            <path d="M1374.53219,247.1099 L1387.06006,272.165628 C1388.04801,274.141542 1387.24712,276.544234 1385.2712,277.532191 C1384.71578,277.809902 1384.10333,277.954483 1383.48235,277.954483 L1358.42662,277.954483 C1356.21748,277.954483 1354.42662,276.163622 1354.42662,273.954483 C1354.42662,273.333502 1354.5712,272.72105 1354.84891,272.165628 L1367.37677,247.1099 C1368.36473,245.133986 1370.76742,244.333089 1372.74334,245.321046 C1373.51745,245.708101 1374.14514,246.335791 1374.53219,247.1099 Z" id="Triangle" fill="#E94962" transform="translate(1370.954483, 258.954483) rotate(150.000000) translate(-1370.954483, -258.954483) "></path>
            <path d="M1419.07161,574.149319 L1448.09947,632.205047 C1449.08743,634.180961 1448.28653,636.583654 1446.31062,637.571611 C1445.7552,637.849321 1445.14275,637.993902 1444.52177,637.993902 L1386.46604,637.993902 C1384.2569,637.993902 1382.46604,636.203041 1382.46604,633.993902 C1382.46604,633.372921 1382.61062,632.760469 1382.88833,632.205047 L1411.91619,574.149319 C1412.90415,572.173405 1415.30684,571.372508 1417.28276,572.360465 C1418.05687,572.74752 1418.68456,573.37521 1419.07161,574.149319 Z" id="Triangle" fill="#774EE0" transform="translate(1415.493902, 602.493902) rotate(150.000000) translate(-1415.493902, -602.493902) "></path>
            <path d="M1319.85707,11.9635474 L1336.38494,45.0192755 C1337.37289,46.9951894 1336.572,49.3978816 1334.59608,50.3858386 C1334.04066,50.6635495 1333.42821,50.8081298 1332.80723,50.8081298 L1299.7515,50.8081298 C1297.54236,50.8081298 1295.7515,49.0172688 1295.7515,46.8081298 C1295.7515,46.1871495 1295.89608,45.5746972 1296.17379,45.0192755 L1312.70165,11.9635474 C1313.68961,9.98763338 1316.0923,9.18673599 1318.06822,10.174693 C1318.84233,10.5617478 1319.47002,11.1894378 1319.85707,11.9635474 Z" id="Triangle" fill="#E94962" transform="translate(1316.279364, 27.808130) rotate(192.000000) translate(-1316.279364, -27.808130) "></path>
            <path d="M1309.04421,24.1506866 L1331.57208,69.2064147 C1332.56003,71.1823286 1331.75914,73.5850208 1329.78322,74.5729778 C1329.2278,74.8506887 1328.61535,74.995269 1327.99437,74.995269 L1282.93864,74.995269 C1280.7295,74.995269 1278.93864,73.204408 1278.93864,70.995269 C1278.93864,70.3742887 1279.08322,69.7618364 1279.36093,69.2064147 L1301.88879,24.1506866 C1302.87675,22.1747726 1305.27944,21.3738752 1307.25536,22.3618322 C1308.02947,22.748887 1308.65716,23.376577 1309.04421,24.1506866 Z" id="Triangle" fill="#5EC3A6" transform="translate(1305.466503, 45.995269) rotate(111.000000) translate(-1305.466503, -45.995269) "></path>
            <g id="Group" transform="translate(1005.411662, 768.624380) rotate(53.000000) translate(-1005.411662, -768.624380) translate(967.411662, 726.624380)">
                <path d="M51.6146734,12.2652684 L68.1425374,45.3209965 C69.1304944,47.2969104 68.329597,49.6996026 66.353683,50.6875596 C65.7982613,50.9652705 65.185809,51.1098508 64.5648286,51.1098508 L31.5091005,51.1098508 C29.2999615,51.1098508 27.5091005,49.3189898 27.5091005,47.1098508 C27.5091005,46.4888705 27.6536809,45.8764182 27.9313918,45.3209965 L44.4592558,12.2652684 C45.4472128,10.2893544 47.849905,9.48845699 49.825819,10.476414 C50.5999286,10.8634688 51.2276185,11.4911588 51.6146734,12.2652684 Z" id="Triangle" fill="#EAC12F" transform="translate(48.036965, 28.109851) rotate(192.000000) translate(-48.036965, -28.109851) "></path>
                <path d="M41.1388232,24.447422 L63.6666872,69.50315 C64.6546442,71.479064 63.8537468,73.8817562 61.8778329,74.8697132 C61.3224111,75.1474241 60.7099589,75.2920044 60.0889785,75.2920044 L15.0332504,75.2920044 C12.8241114,75.2920044 11.0332504,73.5011434 11.0332504,71.2920044 C11.0332504,70.671024 11.1778308,70.0585718 11.4555416,69.50315 L33.9834057,24.447422 C34.9713627,22.471508 37.3740548,21.6706106 39.3499688,22.6585676 C40.1240784,23.0456224 40.7517684,23.6733123 41.1388232,24.447422 Z" id="Triangle" fill="#774EE0" transform="translate(37.561114, 46.292004) rotate(111.000000) translate(-37.561114, -46.292004) "></path>
            </g>
        </g>
    </g>
</svg>