<?xml version="1.0" encoding="UTF-8"?>
<svg width="1396px" height="761px" viewBox="0 0 1396 761" version="1.1" xmlns="http://www.w3.org/2000/svg" xmlns:xlink="http://www.w3.org/1999/xlink">
    <!-- Generator: Sketch 52.1 (67048) - http://www.bohemiancoding.com/sketch -->
    <title>Desktop HD Copy 3</title>
    <desc>Created with Sketch.</desc>
    <g id="Desktop-HD-Copy-3" stroke="none" stroke-width="1" fill="none" fill-rule="evenodd">
        <g id="Group-2" transform="translate(-210.000000, -46.000000)" fill-rule="nonzero">
            <path d="M431.184485,291.484479 L611.869723,658.866989 C636.243712,708.425975 615.827238,768.360494 566.268252,792.734482 C552.536473,799.488015 537.437918,803 522.135241,803 L160.764765,803 C105.53629,803 60.7647645,758.228475 60.7647645,703 C60.7647645,687.697323 64.2767498,672.598767 71.030282,658.866989 L251.71552,291.484479 C276.089509,241.925493 336.024027,221.509019 385.583014,245.883008 C405.402315,255.630492 421.437001,271.665178 431.184485,291.484479 Z" id="Triangle" fill="#E94962"></path>
            <path d="M541.141036,96.520515 L774.804241,555.493891 C799.860807,604.711296 780.274577,664.922246 731.057171,689.978812 C716.96962,697.15078 701.382459,700.880755 685.574362,700.862752 L219.309954,700.331751 C164.081515,700.268855 119.361006,655.446371 119.423903,600.217932 C119.441765,584.533201 123.148854,569.0726 130.245664,555.085234 L362.846867,96.6428583 C387.835864,47.3911126 448.019878,27.7222689 497.271623,52.7112663 C516.16663,62.2980793 531.528301,77.6386826 541.141036,96.520515 Z" id="Triangle" fill="#774EE0" transform="translate(452.566707, 371.365407) rotate(86.000000) translate(-452.566707, -371.365407) "></path>
            <path d="M556.265326,546.418238 L290.951922,705.712564 C243.602266,734.141326 182.171721,718.802911 153.742959,671.453254 C145.605763,657.90031 140.797569,642.611309 139.712811,626.840464 L133.221485,532.465783 L251.577891,291.814838 C275.95188,242.255851 335.886398,221.839377 385.445384,246.213366 C405.264685,255.96085 421.299372,271.995537 431.046856,291.814838 L556.265326,546.418238 Z" id="Combined-Shape" fill="#E16AC0"></path>
        </g>
        <g id="Group-4" transform="translate(619.000000, -41.000000)" fill-rule="nonzero">
            <path d="M847.533136,200.90221 L1074.85082,662.135042 C1099.26589,711.673799 1078.89913,771.625227 1029.36037,796.040304 C1015.84265,802.702484 1000.99397,806.223257 985.924143,806.339476 L524.166599,809.900568 C468.939766,810.326479 423.824303,765.901555 423.398392,710.674722 C423.275745,694.771426 426.947956,679.068222 434.110223,664.86851 L668.550087,200.074588 C693.422248,150.763736 753.559461,130.952263 802.870313,155.824424 C822.257028,165.602992 837.934272,181.425893 847.533136,200.90221 Z" id="Triangle" fill="#5EC3A6" transform="translate(754.285362, 477.495797) rotate(140.000000) translate(-754.285362, -477.495797) "></path>
            <path d="M570.357279,229.93467 L804.412073,695.120746 C829.234942,744.456429 809.363381,804.573813 760.027698,829.396683 C745.858758,836.525676 730.197251,840.182 714.336374,840.063747 L253.104341,836.62497 C197.877401,836.213218 153.440911,791.109146 153.852663,735.882206 C153.96491,720.826873 157.47521,705.991204 164.121691,692.481951 L391.29893,230.734653 C415.679981,181.179141 475.617408,160.771208 525.172921,185.152259 C544.707597,194.763216 560.572157,210.486651 570.357279,229.93467 Z" id="Triangle" fill="#4AB2E7" transform="translate(484.476725, 507.462291) rotate(216.000000) translate(-484.476725, -507.462291) "></path>
            <path d="M646.10861,654.858027 L390.034158,542.109431 C339.488225,519.854251 316.554038,460.837287 338.809218,410.291354 C344.882023,396.498806 353.993661,384.257191 365.463118,374.481461 L595.654067,178.283449 L865.137885,377.161365 C909.575396,409.956061 919.013763,472.565134 886.219068,517.002646 C877.278956,529.116689 865.718876,539.055695 852.40122,546.078207 L646.10861,654.858027 Z" id="Combined-Shape" fill="#54BBC7"></path>
        </g>
    </g>
</svg>