<?xml version="1.0" encoding="UTF-8"?>
<svg width="1396px" height="734px" viewBox="0 0 1396 734" version="1.1" xmlns="http://www.w3.org/2000/svg" xmlns:xlink="http://www.w3.org/1999/xlink">
    <!-- Generator: Sketch 52.1 (67048) - http://www.bohemiancoding.com/sketch -->
    <title>Desktop HD Copy 3</title>
    <desc>Created with Sketch.</desc>
    <g id="Desktop-HD-Copy-3" stroke="none" stroke-width="1" fill="none" fill-rule="evenodd">
        <g id="Group-2" transform="translate(-134.000000, 53.000000)" fill-rule="nonzero">
            <path d="M428.266022,236.42767 L597.214876,531.284234 C624.672135,579.203785 608.08417,640.308763 560.16462,667.766022 C545.030469,676.437687 527.891339,681 510.448853,681 L172.551147,681 C117.322672,681 72.5511465,636.228475 72.5511465,581 C72.5511465,563.557515 77.1134591,546.418385 85.7851243,531.284234 L254.733978,236.42767 C282.191237,188.508119 343.296215,171.920154 391.215766,199.377414 C406.639381,208.214938 419.428498,221.004055 428.266022,236.42767 Z" id="Triangle" fill="#E94962"></path>
            <path d="M532.595282,54.260185 L716.769162,481.635368 C738.626254,532.354713 715.228774,591.18954 664.509429,613.046632 C652.322257,618.298595 639.21162,621.072288 625.94164,621.206053 L250.050149,624.995142 C194.82448,625.551832 149.603943,581.233868 149.047253,526.008198 C148.902735,511.671489 151.842779,497.471329 157.668023,484.370618 L349.385634,53.2063464 C371.824745,2.74179692 430.924839,-19.97731 481.389388,2.46180078 C504.362693,12.676903 522.645136,31.1708879 532.595282,54.260185 Z" id="Triangle" fill="#774EE0" transform="translate(437.000000, 309.500000) rotate(86.000000) translate(-437.000000, -309.500000) "></path>
            <path d="M556.409362,460.8552 L284.190991,601.084617 C235.093967,626.37625 174.790046,607.078167 149.498413,557.981143 C143.438538,546.217496 139.773679,533.368109 138.716238,520.177685 L133,448.873835 L254.513511,236.890873 C281.979299,188.97621 343.087228,172.399121 391.001891,199.864908 C406.413457,208.699172 419.193592,221.479308 428.027856,236.890873 L556.409362,460.8552 Z" id="Combined-Shape" fill="#E16AC0"></path>
        </g>
        <g id="Group-4" transform="translate(501.000000, 42.000000)" fill-rule="nonzero">
            <path d="M851.57962,162.633295 L1082.70905,594.819466 C1108.75419,643.520957 1090.38759,704.115072 1041.68609,730.160209 C1026.05015,738.522177 1008.47199,742.576311 990.753151,741.907116 L560.958734,725.674891 C505.769606,723.59054 462.719677,677.161211 464.804028,621.972082 C465.318869,608.340212 468.617372,594.957821 474.496618,582.648173 L673.161602,166.694227 C696.963948,116.858168 756.65967,95.7536744 806.495729,119.556021 C825.730854,128.742965 841.52703,143.836077 851.57962,162.633295 Z" id="Triangle" fill="#5EC3A6" transform="translate(779.639133, 425.873660) rotate(140.000000) translate(-779.639133, -425.873660) "></path>
            <path d="M566.025402,230.929215 L759.448362,661.471826 C782.080916,711.849916 759.588716,771.036737 709.210627,793.669292 C697.323422,799.009665 684.507007,801.975101 671.482196,802.398818 L257.208699,815.875776 C202.009425,817.671493 155.805855,774.379357 154.010137,719.180083 C153.471911,702.635335 157.049259,686.215742 164.421236,671.394395 L385.271774,227.374828 C409.867363,177.925445 469.892672,157.777464 519.342055,182.373053 C540.050011,192.672967 556.54755,209.832344 566.025402,230.929215 Z" id="Triangle" fill="#4AB2E7" transform="translate(461.106374, 493.908346) rotate(241.000000) translate(-461.106374, -493.908346) "></path>
            <path d="M819.60097,644.265591 L438.572253,491.382534 C387.315805,470.816518 362.436294,412.592908 383.00231,361.33646 C389.605168,344.88023 400.464871,330.475562 414.468442,319.598742 L625.549045,155.648734 C626.617291,157.224228 627.6416,158.831771 628.620418,160.469638 L841.251407,516.267644 C866.833403,559.074309 856.708095,613.288157 819.60097,644.265591 Z" id="Combined-Shape" fill="#54BBC7"></path>
        </g>
    </g>
</svg>