<?xml version="1.0" encoding="UTF-8"?>
<svg width="1396px" height="734px" viewBox="0 0 1396 734" version="1.1" xmlns="http://www.w3.org/2000/svg" xmlns:xlink="http://www.w3.org/1999/xlink">
    <!-- Generator: Sketch 52.1 (67048) - http://www.bohemiancoding.com/sketch -->
    <title>Desktop HD Copy 3</title>
    <desc>Created with Sketch.</desc>
    <g id="Desktop-HD-Copy-3" stroke="none" stroke-width="1" fill="none" fill-rule="evenodd">
        <g id="Group-2" transform="translate(175.121977, 329.803276) rotate(25.000000) translate(-175.121977, -329.803276) translate(-422.378023, -145.696724)" fill-rule="nonzero">
            <path d="M532.007913,289.587025 L746.015747,663.339387 C773.45879,711.267081 756.852699,772.367135 708.925005,799.810178 C693.79701,808.472356 676.667408,813.029411 659.23498,813.029411 L231.219312,813.029411 C175.990837,813.029411 131.219312,768.257886 131.219312,713.029411 C131.219312,695.596983 135.776368,678.467382 144.438545,663.339387 L358.446379,289.587025 C385.889422,241.659331 446.989476,225.05324 494.91717,252.496282 C510.360875,261.339233 523.164962,274.143321 532.007913,289.587025 Z" id="Triangle" fill="#E94962" transform="translate(445.227146, 475.529411) rotate(-71.000000) translate(-445.227146, -475.529411) "></path>
            <path d="M941.921479,313.889981 L1126.09536,741.265163 C1147.95245,791.984509 1124.55497,850.819335 1073.83563,872.676427 C1061.64845,877.928391 1048.53782,880.702084 1035.26784,880.835849 L659.376346,884.624938 C604.150677,885.181627 558.93014,840.863663 558.37345,785.637994 C558.228932,771.301285 561.168976,757.101125 566.99422,744.000414 L758.711831,312.836142 C781.150942,262.371593 840.251035,239.652486 890.715585,262.091596 C913.68889,272.306699 931.971333,290.800684 941.921479,313.889981 Z" id="Triangle" fill="#774EE0" transform="translate(846.326197, 569.129796) rotate(83.000000) translate(-846.326197, -569.129796) "></path>
        </g>
        <g id="Group-2" transform="translate(198.758686, 458.058862) rotate(25.000000) translate(-198.758686, -458.058862) translate(34.758686, 184.558862)" fill="#E16AC0" fill-rule="nonzero">
            <path d="M327.236159,64.7959728 C326.480775,67.9734551 325.568222,71.1201821 324.49934,74.2244407 L185.151069,478.921206 C169.852268,523.352151 126.371884,550.072951 81.5764185,545.97994 C74.5468108,539.457869 68.3441101,531.806449 63.2541199,523.100592 C56.5560614,511.644315 52.2052583,498.969431 50.4552865,485.814665 L0.88479165,113.186786 C-6.39806477,58.4406041 32.078563,8.15613306 86.824745,0.873276645 C101.036978,-1.01736939 115.489593,0.170195658 129.202573,4.35544409 L327.236248,64.7960025 Z" id="Combined-Shape"></path>
        </g>
        <g id="Group-4" transform="translate(501.000000, 42.000000)" fill-rule="nonzero">
            <path d="M851.57962,162.633295 L1082.70905,594.819466 C1108.75419,643.520957 1090.38759,704.115072 1041.68609,730.160209 C1026.05015,738.522177 1008.47199,742.576311 990.753151,741.907116 L560.958734,725.674891 C505.769606,723.59054 462.719677,677.161211 464.804028,621.972082 C465.318869,608.340212 468.617372,594.957821 474.496618,582.648173 L673.161602,166.694227 C696.963948,116.858168 756.65967,95.7536744 806.495729,119.556021 C825.730854,128.742965 841.52703,143.836077 851.57962,162.633295 Z" id="Triangle" fill="#5EC3A6" transform="translate(779.639133, 425.873660) rotate(140.000000) translate(-779.639133, -425.873660) "></path>
            <path d="M566.025402,230.929215 L759.448362,661.471826 C782.080916,711.849916 759.588716,771.036737 709.210627,793.669292 C697.323422,799.009665 684.507007,801.975101 671.482196,802.398818 L257.208699,815.875776 C202.009425,817.671493 155.805855,774.379357 154.010137,719.180083 C153.471911,702.635335 157.049259,686.215742 164.421236,671.394395 L385.271774,227.374828 C409.867363,177.925445 469.892672,157.777464 519.342055,182.373053 C540.050011,192.672967 556.54755,209.832344 566.025402,230.929215 Z" id="Triangle" fill="#4AB2E7" transform="translate(461.106374, 493.908346) rotate(241.000000) translate(-461.106374, -493.908346) "></path>
            <path d="M819.60097,644.265591 L438.572253,491.382534 C387.315805,470.816518 362.436294,412.592908 383.00231,361.33646 C389.605168,344.88023 400.464871,330.475562 414.468442,319.598742 L625.549045,155.648734 C626.617291,157.224228 627.6416,158.831771 628.620418,160.469638 L841.251407,516.267644 C866.833403,559.074309 856.708095,613.288157 819.60097,644.265591 Z" id="Combined-Shape" fill="#54BBC7"></path>
        </g>
    </g>
</svg>