<?xml version="1.0"?>
<svg xmlns="http://www.w3.org/2000/svg" xmlns:xlink="http://www.w3.org/1999/xlink" version="1.1" viewBox="0 0 224 224" width="100px" height="100px"><g fill="none" fill-rule="nonzero" stroke="none" stroke-width="1" stroke-linecap="butt" stroke-linejoin="miter" stroke-miterlimit="10" stroke-dasharray="" stroke-dashoffset="0" font-family="none" font-weight="none" font-size="none" text-anchor="none" style="mix-blend-mode: normal"><path d="M0,224v-224h224v224z" fill="none"/><g fill="#4ab2e7"><path d="M72.8,29.12c-0.61853,0.00006 -1.11994,0.50147 -1.12,1.12v3.36h-4.48c-7.39564,0 -13.44,6.04436 -13.44,13.44v131.04c0,6.77729 5.54271,12.32 12.32,12.32h101.92c1.09221,0.00178 2.02651,-0.78435 2.2115,-1.86078c0.18499,-1.07643 -0.43324,-2.12938 -1.46338,-2.49234c-2.85564,-1.0096 -5.22812,-4.53311 -5.22812,-7.96688c0,-3.43377 2.37248,-6.95727 5.22812,-7.96688c0.95022,-0.33413 1.56061,-1.26134 1.49188,-2.26625v-114.08688c0,-11.10708 -9.05292,-20.16 -20.16,-20.16h-40.32v-3.36c-0.00006,-0.61853 -0.50147,-1.11994 -1.12,-1.12zM73.92,31.36h33.6v66.50875l-16.14375,-8.07187c-0.19555,-0.14232 -0.43191,-0.21753 -0.67375,-0.21437c-0.23185,0.00459 -0.45656,0.08102 -0.64313,0.21875l-16.13937,8.0675zM67.2,38.08h4.48v61.6c0.00039,0.38755 0.20108,0.74736 0.53062,0.95132c0.32954,0.20396 0.7411,0.22308 1.08813,0.05055l16.30125,-8.15063v40.74875c-0.00571,0.40391 0.2065,0.77961 0.55538,0.98323c0.34888,0.20362 0.78037,0.20362 1.12924,0c0.34888,-0.20362 0.56109,-0.57932 0.55538,-0.98323v-40.74875l16.30125,8.15063c0.34703,0.17252 0.75859,0.1534 1.08813,-0.05055c0.32954,-0.20396 0.53023,-0.56377 0.53062,-0.95132v-61.6h40.32c8.68556,0 15.68,6.99444 15.68,15.68v112h-99.68c-2.9717,0 -5.70622,1.06686 -7.84,2.835v-121.555c0,-4.97364 3.98636,-8.96 8.96,-8.96zM90.7025,138.8625c-0.29704,0.00463 -0.58008,0.12708 -0.78684,0.34041c-0.20676,0.21332 -0.32031,0.50005 -0.31566,0.79709v4.48c-0.00571,0.40391 0.2065,0.77961 0.55538,0.98323c0.34888,0.20362 0.78037,0.20362 1.12924,0c0.34888,-0.20362 0.56109,-0.57932 0.55538,-0.98323v-4.48c0.00474,-0.30311 -0.11358,-0.5952 -0.32794,-0.80956c-0.21436,-0.21436 -0.50645,-0.33268 -0.80956,-0.32794zM90.7025,147.8225c-0.29704,0.00463 -0.58008,0.12708 -0.78684,0.34041c-0.20676,0.21332 -0.32031,0.50005 -0.31566,0.79709v2.24c-0.00571,0.40391 0.2065,0.77961 0.55538,0.98323c0.34888,0.20362 0.78037,0.20362 1.12924,0c0.34888,-0.20362 0.56109,-0.57932 0.55538,-0.98323v-2.24c0.00474,-0.30311 -0.11358,-0.5952 -0.32794,-0.80956c-0.21436,-0.21436 -0.50645,-0.33268 -0.80956,-0.32794zM66.08,170.24h95.56312c-0.96988,1.33948 -1.67442,2.86634 -2.11312,4.48h-88.97c-0.40391,-0.00571 -0.77961,0.2065 -0.98323,0.55538c-0.20362,0.34888 -0.20362,0.78037 0,1.12924c0.20362,0.34888 0.57932,0.56109 0.98323,0.55538h88.57625c-0.03349,0.37295 -0.09625,0.74203 -0.09625,1.12c0,0.37797 0.06276,0.74705 0.09625,1.12h-68.41625c-0.40391,-0.00571 -0.77961,0.2065 -0.98323,0.55538c-0.20362,0.34888 -0.20362,0.78037 0,1.12924c0.20362,0.34888 0.57932,0.56109 0.98323,0.55538h68.81c0.43871,1.61366 1.14324,3.14052 2.11312,4.48h-95.56312c-4.35551,0 -7.84,-3.48449 -7.84,-7.84c0,-4.35551 3.48449,-7.84 7.84,-7.84z"/></g></g></svg>
