<?xml version="1.0" encoding="UTF-8"?>
<svg width="1440px" height="1233px" viewBox="0 0 1440 1233" version="1.1" xmlns="http://www.w3.org/2000/svg" xmlns:xlink="http://www.w3.org/1999/xlink">
    <!-- Generator: Sketch 52.1 (67048) - http://www.bohemiancoding.com/sketch -->
    <title>Desktop HD Copy 4</title>
    <desc>Created with Sketch.</desc>
    <g id="Desktop-HD-Copy-4" stroke="none" stroke-width="1" fill="none" fill-rule="evenodd" opacity="0.05">
        <path d="M770.539597,715.432097 C739.088757,781.990625 741.649762,812.833691 759.015076,856.228984 C776.38039,899.624277 848.650243,917.667626 848.650243,917.667626 C878.101797,931.747315 1509.38947,931.747315 1593.80019,924.067484 C1598.71732,924.067484 1655.63565,904.867909 1681.66826,863.908814 C1707.70088,822.94972 1685.47531,751.271305 1685.47531,751.271305 C1683.0101,729.085128 1560.86593,520.876398 1319.04279,126.645114 C1296.54863,85.6860193 1262.67935,65.206472 1217.43493,65.206472 C1149.5683,65.206472 1113.71424,126.645114 1113.71424,126.645114 C1046.5903,236.72268 797.430147,670.633087 770.539597,715.432097 Z" id="Path-3" fill="#9B9B9B" fill-rule="nonzero" transform="translate(1220.315069, 497.206472) scale(-1, 1) rotate(42.000000) translate(-1220.315069, -497.206472) "></path>
    </g>
</svg>