<?xml version="1.0" encoding="UTF-8"?>
<svg width="1440px" height="1233px" viewBox="0 0 1440 1233" version="1.1" xmlns="http://www.w3.org/2000/svg" xmlns:xlink="http://www.w3.org/1999/xlink">
    <!-- Generator: Sketch 52.1 (67048) - http://www.bohemiancoding.com/sketch -->
    <title>Desktop HD Copy 4</title>
    <desc>Created with Sketch.</desc>
    <g id="Desktop-HD-Copy-4" stroke="none" stroke-width="1" fill="none" fill-rule="evenodd" opacity="0.05">
        <path d="M761.06326,612.656058 C729.61242,679.214587 732.173425,710.057652 749.538739,753.452945 C766.904053,796.848238 839.173906,814.891587 839.173906,814.891587 C868.625461,828.971276 1499.91313,828.971276 1584.32385,821.291446 C1589.24098,821.291446 1646.15931,802.09187 1672.19192,761.132776 C1698.22454,720.173681 1675.99897,648.495266 1675.99897,648.495266 C1673.53376,626.30909 1551.38959,418.100359 1309.56646,23.8690749 C1287.0723,-17.0900196 1253.20301,-37.5695668 1207.95859,-37.5695668 C1140.09197,-37.5695668 1104.2379,23.8690749 1104.2379,23.8690749 C1037.11396,133.946641 787.95381,567.857048 761.06326,612.656058 Z" id="Path-3" fill="#9B9B9B" fill-rule="nonzero" transform="translate(1210.838732, 394.430433) scale(-1, 1) rotate(76.000000) translate(-1210.838732, -394.430433) "></path>
    </g>
</svg>